<?xml version="1.0" encoding="utf-8"?>
<!-- Generator: Adobe Illustrator 22.0.1, SVG Export Plug-In . SVG Version: 6.00 Build 0)  -->
<svg version="1.1" id="Layer_1" xmlns="http://www.w3.org/2000/svg" xmlns:xlink="http://www.w3.org/1999/xlink" x="0px" y="0px"
	 viewBox="0 0 200 200" style="enable-background:new 0 0 200 200;" xml:space="preserve">
<style type="text/css">
	.st0{fill:#222222;}
</style>
<g>
	<path class="st0" d="M10.1,100.7h2c2.1,0,3.5-1.6,3.5-3.6c0-2.1-1.4-3.6-3.5-3.6h-2V100.7L10.1,100.7z M11.5,94.7h0.2
		c1.6,0,2.4,0.8,2.4,2.4c0,1.4-0.7,2.4-2.4,2.4h-0.2V94.7L11.5,94.7z M25,99.2l0.6,1.5h1.5l-2.7-7.4h-1.1l-2.8,7.4h1.5l0.6-1.5H25
		L25,99.2z M24.6,98h-1.7l0.8-2.6h0L24.6,98L24.6,98z M32.8,100.7h1.4v-4.9h0l3.8,5.1h1v-7.4h-1.4v4.9h0l-3.8-5.1h-1V100.7
		L32.8,100.7z M47.5,93.5H46v7.2h1.4V93.5L47.5,93.5z M58.5,94.7v-1.2h-3.7v7.2h3.7v-1.2h-2.3v-2h2.2v-1.2h-2.2v-1.6H58.5L58.5,94.7
		z M67.1,93.5h-1.4v7.2H69v-1.2h-2V93.5L67.1,93.5z M82.3,93.5h-1.5l2.3,7.4h1l1.4-4.7h0l1.4,4.7h1l2.4-7.4h-1.5l-1.4,4.9h0l-1.5-5
		h-0.8l-1.4,5h0L82.3,93.5L82.3,93.5z M99.6,94.7v-1.2h-3.7v7.2h3.7v-1.2h-2.3v-2h2.2v-1.2h-2.2v-1.6H99.6L99.6,94.7z M107.9,93.5
		h-1.4v7.2h3.4v-1.2h-2V93.5L107.9,93.5z M117.6,93.5h-1.4v7.2h3.4v-1.2h-2V93.5L117.6,93.5z M128,93.5h-1.4v7.2h1.4V93.5L128,93.5z
		 M135.6,100.7h1.4v-4.9h0l3.8,5.1h1v-7.4h-1.4v4.9h0l-3.8-5.1h-1V100.7L135.6,100.7z M151.8,96.8V98h1.5c0,0.9-0.8,1.6-1.7,1.6
		c-1.4,0-2-1.3-2-2.5c0-1.2,0.7-2.6,2-2.6c0.7,0,1.4,0.5,1.7,1.2l1.2-0.7c-0.6-1.1-1.6-1.7-2.9-1.7c-2.2,0-3.5,1.8-3.5,3.8
		c0,2,1.3,3.8,3.4,3.8c2.2,0,3.3-1.8,3.3-3.9v-0.2H151.8L151.8,96.8z M163.9,94.7h1.5v-1.2H161v1.2h1.5v6h1.4V94.7L163.9,94.7z
		 M174.4,100.9c2.1,0,3.6-1.7,3.6-3.8c0-2-1.5-3.8-3.6-3.8c-2.1,0-3.6,1.8-3.6,3.8C170.9,99.1,172.3,100.9,174.4,100.9L174.4,100.9z
		 M174.4,94.7c1.2,0,2.1,1.2,2.1,2.4c0,1.1-0.9,2.5-2.1,2.5c-1.2,0-2.1-1.4-2.1-2.5C172.3,95.8,173.2,94.7,174.4,94.7L174.4,94.7z
		 M183.7,100.7h1.4v-4.9h0l3.8,5.1h1v-7.4h-1.4v4.9h0l-3.8-5.1h-1V100.7L183.7,100.7z"/>
</g>
</svg>
