<svg xmlns="http://www.w3.org/2000/svg" height="800" width="1200" version="1.1" id="Guides" viewBox="-32.9685 -8.40355 285.727 50.4213" style="background-color: #7360f2"><defs id="defs80"><style id="style78">.cls-1{fill:#fff}</style></defs><path transform="translate(-57.74 -130.9858)" id="polygon84" class="cls-1" d="M123.64 164.6l59.04-5.11h-64.15z"/><path id="path86" d="M66.73 7.8342v.77a6.47 6.47 0 00-3.72-1.2c-4.5 0-7.91 4.1-7.91 9.13 0 5.03 3.41 9.13 7.91 9.13a6.47 6.47 0 003.72-1.2v.78h3.95v-17.41zm-3.72 13.64c-2.22 0-3.84-2.18-3.84-4.94 0-2.76 1.62-4.93 3.84-4.93 2.22 0 3.78 2.18 3.78 4.93 0 2.75-1.53 4.94-3.78 4.94z" class="cls-1"/><path id="path88" d="M98.37 7.8342v10.18a3.25 3.25 0 11-6.47 0v-10.18h-3.95v10.18c0 4.2 2.87 7.61 7.07 7.61a6 6 0 003.35-1.07v.65h4v-17.37z" class="cls-1"/><path id="path90" d="M135.19 25.2442v-10.23a3.25 3.25 0 116.47 0v10.23h3.95v-10.23c0-4.2-2.87-7.61-7.07-7.61a6 6 0 00-3.35 1.08v-.65h-4v17.41z" class="cls-1"/><path id="path92" d="M43.71 25.2442v-6.75h2.92l5.06 6.75h5.18l-6.12-8.14a7.5 7.5 0 00-4.34-13.61h-6.83v21.75zm0-17.62h2.7a3.37 3.37 0 110 6.74h-2.7z" class="cls-1"/><path id="path94" d="M112.97 21.1242a2.33 2.33 0 01-1.32.42 1.94 1.94 0 01-1.86-2.13v-7.4h3.38v-4.13h-3.38v-4.34h-3.95v4.34h-2.09v4.13h2.09v7.51a6 6 0 005.87 6.21 8.14 8.14 0 003.87-1.1z" class="cls-1"/><path transform="translate(-57.74 -130.9858)" id="polygon96" class="cls-1" d="M139.48 138.82l-4.74 6.06v-11.84h-4.07v23.18h4.07v-7.15l5.83 7.15h5.53l-7.86-9.24 6.78-8.16z"/><path id="path98" d="M122.1 7.3942c-4.57 0-7.85 4-7.85 9.14 0 5.39 4.11 9.15 8.24 9.15a8.27 8.27 0 007-3.9l-3.49-2c-2.7 4-7.2 2-7.72-2h11.38c.98-6.28-3.07-10.39-7.56-10.39zm3.45 6.9h-7.12c.83-4.08 6.35-4.28 7.12 0z" class="cls-1"/><path id="path100" d="M158.33 23.7442l-6.36-15.85a3.28 3.28 0 01-.2-.65 3.35 3.35 0 01-.07-.71 2.23 2.23 0 01.7-1.68 2.49 2.49 0 011.76-.67 1.78 1.78 0 011.27.47 4.2 4.2 0 01.91 1.57l4.32 11.66 4.17-11.49a4.1 4.1 0 01.94-1.72 2 2 0 011.41-.49 2.37 2.37 0 011.69.59 2.09 2.09 0 01.62 1.59 4.65 4.65 0 01-.08.82 5.91 5.91 0 01-.24.82l-6.16 15.56a3.76 3.76 0 01-1 1.51 2.2 2.2 0 01-1.43.45 2.06 2.06 0 01-1.34-.41 3.34 3.34 0 01-.91-1.37z" class="cls-1"/><path id="path102" d="M175.1 22.3642a4.34 4.34 0 01-.53 2.39 1.81 1.81 0 01-1.62.77 1.9 1.9 0 01-1.66-.78 4.21 4.21 0 01-.54-2.38v-8.75a4.21 4.21 0 01.54-2.38 1.86 1.86 0 011.66-.77 1.81 1.81 0 011.62.77 4.3 4.3 0 01.53 2.38z" class="cls-1"/><path id="path104" d="M181.69 10.5842a5.17 5.17 0 011.67-1 5.7 5.7 0 012-.33 6.43 6.43 0 015.05 2.37 8.74 8.74 0 012.06 5.93 8.29 8.29 0 01-2.11 5.72 6.45 6.45 0 01-5 2.38 5.36 5.36 0 01-2.11-.41 4.37 4.37 0 01-1.65-1.17 3.21 3.21 0 01-1 1.12 2.11 2.11 0 01-1.22.37 2 2 0 01-1.75-.83 4.62 4.62 0 01-.56-2.54v-14.64a4.68 4.68 0 01.56-2.55 2.25 2.25 0 013.49 0 4.49 4.49 0 01.58 2.55zm-.36 6.89a4.73 4.73 0 00.93 3.06 3 3 0 004.78 0 4.74 4.74 0 00.94-3 4.85 4.85 0 00-.93-3.08 3 3 0 00-4.79 0 4.86 4.86 0 00-.93 3.02z" class="cls-1"/><path id="path106" d="M197.64 18.7442a3.21 3.21 0 001.33 2 3.78 3.78 0 002.43.73 6.93 6.93 0 002.9-.75 7.4 7.4 0 012-.75 1.79 1.79 0 011.33.5 1.68 1.68 0 01.52 1.28c0 1-.69 1.89-2.08 2.68a9.58 9.58 0 01-4.89 1.2 7.72 7.72 0 01-5.72-2.33 8 8 0 01-2.29-5.85 8.2 8.2 0 012.23-5.88 7.68 7.68 0 0110.93-.15 7.47 7.47 0 012.16 5.42 1.87 1.87 0 01-.47 1.46 2.9 2.9 0 01-1.82.41zm-.19-2.7h6.81a3.54 3.54 0 00-1-2.33 3.2 3.2 0 00-2.25-.86 3.5 3.5 0 00-2.31.81 4.33 4.33 0 00-1.25 2.35z" class="cls-1"/><path id="path108" d="M209.75 22.1342v-9.3a4.49 4.49 0 01.57-2.53 1.94 1.94 0 011.74-.82 2.18 2.18 0 011.24.36 3.12 3.12 0 011 1.11 5.35 5.35 0 011.52-1.16 3.59 3.59 0 011.62-.4 2.3 2.3 0 011.66.68 2.2 2.2 0 01.69 1.62c0 .92-.85 1.7-2.55 2.32-.61.22-1.07.4-1.37.54a2.49 2.49 0 00-1.16.93 4 4 0 00-.29 1.84v4.81a4.52 4.52 0 01-.57 2.54 2 2 0 01-1.75.83 1.93 1.93 0 01-1.74-.83 4.52 4.52 0 01-.61-2.54z" class="cls-1"/><path id="path110" d="M170.61 6.5942a2.32 2.32 0 01.72-1.71 2.37 2.37 0 011.72-.71 2.3 2.3 0 011.69.71 2.35 2.35 0 01.71 1.71 2.39 2.39 0 01-2.4 2.4 2.32 2.32 0 01-1.73-.7 2.29 2.29 0 01-.71-1.7z" class="cls-1"/><path id="path112" d="M27.84 3.2242c-.82-.76-4.14-3.17-11.53-3.2 0 0-8.72-.53-13 3.37-2.37 2.37-3.2 5.83-3.29 10.12-.09 4.29-.2 12.33 7.55 14.51v3.33s0 1.35.84 1.62c1.07.34 1.7-.69 2.73-1.79.56-.61 1.34-1.5 1.92-2.18a29.82 29.82 0 009.84-.72c1.07-.35 7.13-1.12 8.12-9.17 1.05-8.29-.46-13.53-3.18-15.89zm.9 15.3c-.84 6.71-5.75 7.13-6.65 7.42a27.41 27.41 0 01-8.47.73s-3.36 4-4.41 5.1a.57.57 0 01-.48.2c-.18-.05-.23-.26-.23-.57v-5.53c-6.56-1.83-6.18-8.67-6.1-12.25.08-3.58.75-6.52 2.75-8.5 3.59-3.25 11-2.77 11-2.77 6.25 0 9.25 1.91 9.94 2.54 2.33 1.98 3.5 6.7 2.65 13.63z" class="cls-1"/><path id="path114" d="M19.35 13.7442a.42.42 0 01-.42-.4 2 2 0 00-2.1-2.18.4207.4207 0 01.05-.84 2.81 2.81 0 012.89 3 .42.42 0 01-.4.44z" class="cls-1"/><path id="path116" d="M21.5 14.4642a.42.42 0 01-.41-.43 4.82 4.82 0 00-1.25-3.53 5.21 5.21 0 00-3.64-1.59.42.42 0 11.06-.83 6.07 6.07 0 014.2 1.85 5.67 5.67 0 011.45 4.08.41.41 0 01-.41.45z" class="cls-1"/><path id="path118" d="M23.69 15.3242a.42.42 0 01-.42-.42 8 8 0 00-2.25-6 7.7 7.7 0 00-5.54-2.19.42.42 0 110-.84 8.56 8.56 0 016.12 2.43 8.88 8.88 0 012.5 6.56.42.42 0 01-.42.42z" class="cls-1"/><path id="path120" d="M16.94 18.9242a1.14 1.14 0 00.9-.34l.62-.78a1.34 1.34 0 011.71-.23 17.43 17.43 0 011.54 1c.47.35 1.42 1.14 1.42 1.15a1.17 1.17 0 01.25 1.54 6.44 6.44 0 01-1.28 1.58 2.55 2.55 0 01-1.31.63.56.56 0 01-.19 0 1.75 1.75 0 01-.55-.08 19.51 19.51 0 01-3.58-1.66 20.94 20.94 0 01-3-2 15.77 15.77 0 01-1.35-1.2h-.05a17.75 17.75 0 01-1.2-1.36 21.81 21.81 0 01-2-3 18.92 18.92 0 01-1.65-3.58 1.82 1.82 0 01-.09-.56 1 1 0 010-.19 2.49 2.49 0 01.63-1.3 6.49 6.49 0 011.41-1.53 1.18 1.18 0 011.55.25s.8 1 1.14 1.42c.34.42.76 1.15 1 1.54a1.37 1.37 0 01-.24 1.72l-.78.61a1.16 1.16 0 00-.34.91 8.09 8.09 0 005.44 5.46z" class="cls-1"/></svg>